<svg width="693" height="104" viewBox="0 0 693 104" fill="none" xmlns="http://www.w3.org/2000/svg">
<path d="M0.290536 30.661C17.1324 40.5434 15.9261 60.8418 27.7262 70.0012C36.6072 76.8949 49.1381 73.4036 56.3836 70.4381C56.3836 70.4381 61.2939 76.6359 64.8162 84.8983C65.9954 87.6704 71.1725 84.616 70.2639 82.2691C58.7498 52.5562 19.5759 37.7326 19.5759 37.7326C19.5759 37.7326 47.2165 36.5611 65.69 60.6987C66.1849 55.1853 67.0045 40.2689 52.699 31.1211C33.3054 18.7063 -3.64155 28.3567 0.290536 30.661Z" fill="#22C55E"/>
<path d="M100.561 25.2231C103.669 25.2231 107.151 25.4245 111.007 25.8274C114.921 26.1727 118.662 26.9785 122.23 28.2446L121.108 40.2446C118.518 40.1871 115.295 40.1583 111.439 40.1583C107.641 40.1008 103.871 40.072 100.13 40.072C99.0362 40.072 98.1153 40.1008 97.3671 40.1583C96.6765 40.2159 96.1297 40.331 95.7269 40.5036C95.324 40.6763 95.0362 40.9065 94.8635 41.1943C94.6909 41.482 94.6046 41.8561 94.6046 42.3166C94.6046 43.1223 94.9499 43.813 95.6405 44.3885C96.3887 44.9065 97.77 45.5684 99.7844 46.3741L110.576 50.8633C115.525 52.9928 118.979 55.4676 120.935 58.2878C122.95 61.0504 123.957 64.6187 123.957 68.9928C123.957 72.3309 123.554 75.1799 122.748 77.5396C121.943 79.8417 120.59 81.7122 118.691 83.1511C116.849 84.5324 114.374 85.5396 111.266 86.1727C108.159 86.8633 104.274 87.2086 99.6117 87.2086C97.5974 87.2086 94.547 87.036 90.4607 86.6906C86.3743 86.4029 81.7413 85.5971 76.5614 84.2734L77.6837 71.1511C81.1369 71.2086 84.3024 71.295 87.1801 71.4101C90.0578 71.4676 92.5326 71.5252 94.6046 71.5827C96.7341 71.5827 98.3168 71.5827 99.3528 71.5827C100.964 71.5827 102.173 71.5252 102.979 71.4101C103.842 71.295 104.417 71.0935 104.705 70.8058C105.051 70.4604 105.223 70.0288 105.223 69.5108C105.223 68.9353 105.108 68.4748 104.878 68.1295C104.648 67.7266 104.245 67.3525 103.669 67.0072C103.094 66.6619 102.259 66.2878 101.166 65.8849L89.3384 60.7051C84.5038 58.518 81.0794 56.072 79.065 53.3669C77.0506 50.6619 76.0434 47.1223 76.0434 42.7482C76.0434 39.3526 76.4751 36.5324 77.3384 34.2878C78.2592 32.0432 79.6693 30.259 81.5686 28.9353C83.4679 27.6116 85.9715 26.6619 89.0794 26.0864C92.2448 25.5108 96.0722 25.2231 100.561 25.2231ZM149.282 26.4317V86H130.721V26.4317H149.282ZM176.933 26.4317V68.0432C176.933 68.964 177.25 69.7122 177.883 70.2878C178.573 70.8633 179.466 71.1511 180.559 71.1511H200.588L201.451 85.1367C197.019 85.7122 192.271 86.0576 187.207 86.1727C182.199 86.2878 177.25 86.3453 172.358 86.3453C168.041 86.3453 164.588 85.1079 161.998 82.6331C159.466 80.1007 158.199 76.8202 158.199 72.7914V26.4317H176.933ZM253.967 26.4317L239.463 80.9928C239.118 82.4892 238.37 83.6978 237.218 84.6187C236.067 85.5396 234.686 86 233.075 86H216.672C215.06 86 213.679 85.5396 212.528 84.6187C211.377 83.6978 210.629 82.4892 210.283 80.9928L195.78 26.4317H215.031L222.715 65.1943C222.945 66.2878 223.147 67.4389 223.319 68.6475C223.492 69.7986 223.664 70.9209 223.837 72.0144H225.909C226.024 70.9209 226.168 69.7986 226.341 68.6475C226.571 67.4389 226.801 66.2878 227.031 65.1943L234.715 26.4317H253.967ZM311.456 26.4317L297.902 55.6115L312.665 86H294.104L280.636 55.6115L292.981 26.4317H311.456ZM273.039 26.4317L285.384 55.6115L271.917 86H253.356L268.118 55.6115L254.564 26.4317H273.039ZM291.255 50.259V60.6187H273.298V50.259H291.255Z" fill="#22C55E"/>
<line x1="347.453" y1="10" x2="347.453" y2="94" stroke="#22C55E" stroke-width="6"/>
<path d="M427.179 54.2335C427.179 60.3707 426.061 65.5016 423.824 69.6262C421.588 73.7259 418.346 76.8194 414.097 78.9065C409.873 80.9688 404.742 82 398.704 82H383.908V27.5105H400.344C405.885 27.5105 410.655 28.5292 414.656 30.5667C418.656 32.5793 421.737 35.5734 423.899 39.5489C426.085 43.4996 427.179 48.3944 427.179 54.2335ZM420.507 54.4571C420.507 49.5622 419.687 45.5246 418.047 42.3442C416.432 39.1638 414.047 36.8033 410.891 35.2628C407.761 33.6974 403.922 32.9147 399.375 32.9147H390.244V76.5585H397.959C405.462 76.5585 411.09 74.7074 414.842 71.0052C418.619 67.303 420.507 61.787 420.507 54.4571ZM453.104 40.4061C453.924 40.4061 454.781 40.4558 455.676 40.5552C456.57 40.6297 457.365 40.7415 458.061 40.8906L457.278 46.6303C456.607 46.4564 455.862 46.3197 455.042 46.2203C454.222 46.1209 453.452 46.0712 452.731 46.0712C451.091 46.0712 449.538 46.4067 448.072 47.0775C446.631 47.7236 445.364 48.6677 444.271 49.9101C443.178 51.1276 442.32 52.606 441.699 54.3453C441.078 56.0597 440.767 57.9729 440.767 60.0849V82H434.543V41.1515H439.687L440.358 48.6802H440.618C441.463 47.1645 442.482 45.7855 443.675 44.5431C444.867 43.2759 446.246 42.2696 447.812 41.5242C449.402 40.7788 451.166 40.4061 453.104 40.4061ZM468.146 41.1515V82H461.959V41.1515H468.146ZM465.127 25.8706C466.146 25.8706 467.016 26.206 467.736 26.8769C468.482 27.5229 468.855 28.5417 468.855 29.9331C468.855 31.2997 468.482 32.3184 467.736 32.9893C467.016 33.6602 466.146 33.9956 465.127 33.9956C464.059 33.9956 463.165 33.6602 462.444 32.9893C461.748 32.3184 461.4 31.2997 461.4 29.9331C461.4 28.5417 461.748 27.5229 462.444 26.8769C463.165 26.206 464.059 25.8706 465.127 25.8706ZM496.643 40.4061C501.737 40.4061 505.8 42.1578 508.831 45.6613C511.862 49.1647 513.378 54.4322 513.378 61.4639C513.378 66.1103 512.682 70.0113 511.291 73.1669C509.899 76.3225 507.936 78.7078 505.402 80.3228C502.892 81.9379 499.923 82.7454 496.494 82.7454C494.333 82.7454 492.432 82.4597 490.792 81.8882C489.152 81.3167 487.748 80.5465 486.58 79.5774C485.413 78.6084 484.444 77.5524 483.673 76.4094H483.226C483.301 77.3785 483.388 78.5463 483.487 79.9129C483.611 81.2794 483.673 82.4721 483.673 83.4908V100.263H477.449V41.1515H482.555L483.375 47.1893H483.673C484.468 45.947 485.437 44.8165 486.58 43.7977C487.723 42.7542 489.115 41.9342 490.755 41.3379C492.419 40.7167 494.382 40.4061 496.643 40.4061ZM495.563 45.624C492.73 45.624 490.444 46.1706 488.705 47.2639C486.99 48.3572 485.736 49.9971 484.94 52.1836C484.145 54.3453 483.723 57.066 483.673 60.3458V61.5385C483.673 64.9922 484.046 67.9117 484.791 70.2971C485.562 72.6824 486.816 74.4962 488.556 75.7386C490.32 76.9809 492.68 77.6021 495.637 77.6021C498.172 77.6021 500.284 76.9188 501.973 75.5522C503.663 74.1856 504.917 72.2848 505.737 69.8498C506.582 67.39 507.005 64.5698 507.005 61.3894C507.005 56.5691 506.06 52.7427 504.172 49.9101C502.309 47.0527 499.439 45.624 495.563 45.624ZM533.838 82H527.465V33.1011H510.32V27.5105H550.908V33.1011H533.838V82ZM585.037 61.5012C585.037 64.8556 584.602 67.8496 583.733 70.4834C582.863 73.1172 581.608 75.341 579.968 77.1548C578.328 78.9687 576.341 80.3601 574.005 81.3291C571.694 82.2733 569.073 82.7454 566.141 82.7454C563.408 82.7454 560.898 82.2733 558.612 81.3291C556.351 80.3601 554.388 78.9687 552.724 77.1548C551.084 75.341 549.804 73.1172 548.885 70.4834C547.99 67.8496 547.543 64.8556 547.543 61.5012C547.543 57.0288 548.301 53.2272 549.817 50.0964C551.332 46.9409 553.494 44.5431 556.302 42.9032C559.134 41.2385 562.501 40.4061 566.402 40.4061C570.129 40.4061 573.384 41.2385 576.167 42.9032C578.974 44.568 581.149 46.9781 582.689 50.1337C584.254 53.2644 585.037 57.0536 585.037 61.5012ZM553.954 61.5012C553.954 64.781 554.388 67.626 555.258 70.0362C556.128 72.4463 557.469 74.3099 559.283 75.6267C561.097 76.9436 563.433 77.6021 566.29 77.6021C569.123 77.6021 571.446 76.9436 573.26 75.6267C575.098 74.3099 576.453 72.4463 577.322 70.0362C578.192 67.626 578.627 64.781 578.627 61.5012C578.627 58.2463 578.192 55.4386 577.322 53.0781C576.453 50.6928 575.111 48.8541 573.297 47.562C571.483 46.27 569.135 45.624 566.253 45.624C562.004 45.624 558.886 47.0278 556.898 49.8356C554.935 52.6433 553.954 56.5318 553.954 61.5012ZM610.478 40.4061C611.298 40.4061 612.155 40.4558 613.05 40.5552C613.944 40.6297 614.739 40.7415 615.435 40.8906L614.652 46.6303C613.981 46.4564 613.236 46.3197 612.416 46.2203C611.596 46.1209 610.826 46.0712 610.105 46.0712C608.465 46.0712 606.912 46.4067 605.446 47.0775C604.005 47.7236 602.738 48.6677 601.645 49.9101C600.552 51.1276 599.694 52.606 599.073 54.3453C598.452 56.0597 598.141 57.9729 598.141 60.0849V82H591.917V41.1515H597.061L597.731 48.6802H597.992C598.837 47.1645 599.856 45.7855 601.049 44.5431C602.241 43.2759 603.62 42.2696 605.186 41.5242C606.776 40.7788 608.54 40.4061 610.478 40.4061ZM635.695 82.7454C632.018 82.7454 628.775 81.9876 625.968 80.4719C623.16 78.9562 620.973 76.6455 619.408 73.5396C617.843 70.4337 617.06 66.5203 617.06 61.7994C617.06 56.8548 617.88 52.8172 619.52 49.6865C621.185 46.5309 623.47 44.1953 626.378 42.6796C629.285 41.1639 632.589 40.4061 636.292 40.4061C638.329 40.4061 640.292 40.6173 642.18 41.0397C644.094 41.4373 645.659 41.9466 646.876 42.5678L645.013 47.7484C643.77 47.2515 642.329 46.8042 640.689 46.4067C639.074 46.0091 637.559 45.8103 636.142 45.8103C633.31 45.8103 630.949 46.4191 629.061 47.6366C627.198 48.8541 625.794 50.6431 624.85 53.0035C623.93 55.364 623.47 58.2711 623.47 61.7248C623.47 65.0295 623.918 67.8496 624.812 70.1852C625.732 72.5209 627.086 74.3099 628.875 75.5522C630.689 76.7697 632.95 77.3785 635.658 77.3785C637.82 77.3785 639.77 77.1548 641.509 76.7076C643.249 76.2355 644.826 75.6889 646.243 75.0677V80.5837C644.876 81.2794 643.348 81.8136 641.659 82.1864C639.994 82.5591 638.006 82.7454 635.695 82.7454ZM658.304 24.0071V41.3379C658.304 42.3318 658.279 43.3381 658.229 44.3568C658.179 45.3507 658.092 46.27 657.968 47.1148H658.378C659.223 45.6737 660.291 44.4686 661.583 43.4996C662.9 42.5057 664.391 41.7603 666.056 41.2633C667.721 40.7415 669.485 40.4807 671.348 40.4807C674.628 40.4807 677.361 41.0024 679.548 42.046C681.759 43.0896 683.411 44.7046 684.505 46.8912C685.623 49.0777 686.182 51.9103 686.182 55.3889V82H680.069V55.7988C680.069 52.3948 679.287 49.848 677.721 48.1584C676.181 46.4688 673.808 45.624 670.603 45.624C667.571 45.624 665.149 46.2079 663.335 47.3757C661.546 48.5187 660.254 50.2083 659.459 52.4445C658.689 54.6807 658.304 57.4139 658.304 60.644V82H652.117V24.0071H658.304Z" fill="#22C55E"/>
</svg>
